<svg width="177" height="12" viewBox="0 0 177 12" fill="none" xmlns="http://www.w3.org/2000/svg">
<path d="M1.60733 5C1.05505 5 0.60733 5.44772 0.60733 6C0.60733 6.55228 1.05505 7 1.60733 7L1.60733 5ZM176.857 6.00002L171.084 0.226512L165.31 6.00001L171.084 11.7735L176.857 6.00002ZM7.66006 7C8.21235 7 8.66006 6.55229 8.66006 6C8.66006 5.44772 8.21235 5 7.66006 5L7.66006 7ZM19.7655 5C19.2132 5 18.7655 5.44772 18.7655 6C18.7655 6.55229 19.2132 7 19.7655 7L19.7655 5ZM31.871 7C32.4233 7 32.871 6.55229 32.871 6C32.871 5.44772 32.4233 5 31.871 5L31.871 7ZM43.9764 5C43.4242 5 42.9764 5.44772 42.9764 6C42.9764 6.55229 43.4242 7 43.9764 7L43.9764 5ZM56.0819 7C56.6342 7 57.0819 6.55229 57.0819 6C57.0819 5.44772 56.6342 5 56.0819 5L56.0819 7ZM68.1874 5.00001C67.6351 5.00001 67.1874 5.44772 67.1874 6.00001C67.1874 6.55229 67.6351 7.00001 68.1874 7.00001L68.1874 5.00001ZM80.2928 7.00001C80.8451 7.00001 81.2928 6.55229 81.2928 6.00001C81.2928 5.44772 80.8451 5.00001 80.2928 5.00001L80.2928 7.00001ZM92.3983 5.00001C91.846 5.00001 91.3983 5.44772 91.3983 6.00001C91.3983 6.55229 91.846 7.00001 92.3983 7.00001L92.3983 5.00001ZM104.504 7.00001C105.056 7.00001 105.504 6.55229 105.504 6.00001C105.504 5.44772 105.056 5.00001 104.504 5.00001L104.504 7.00001ZM116.609 5.00001C116.057 5.00001 115.609 5.44773 115.609 6.00001C115.609 6.55229 116.057 7.00001 116.609 7.00001L116.609 5.00001ZM128.715 7.00001C129.267 7.00001 129.715 6.5523 129.715 6.00001C129.715 5.44773 129.267 5.00001 128.715 5.00001L128.715 7.00001ZM140.82 5.00001C140.268 5.00001 139.82 5.44773 139.82 6.00001C139.82 6.5523 140.268 7.00001 140.82 7.00001L140.82 5.00001ZM152.926 7.00001C153.478 7.00001 153.926 6.5523 153.926 6.00001C153.926 5.44773 153.478 5.00001 152.926 5.00001L152.926 7.00001ZM165.031 5.00001C164.479 5.00001 164.031 5.44773 164.031 6.00001C164.031 6.5523 164.479 7.00001 165.031 7.00001L165.031 5.00001ZM1.60733 7L7.66006 7L7.66006 5L1.60733 5L1.60733 7ZM19.7655 7L31.871 7L31.871 5L19.7655 5L19.7655 7ZM43.9764 7L56.0819 7L56.0819 5L43.9764 5L43.9764 7ZM68.1874 7.00001L80.2928 7.00001L80.2928 5.00001L68.1874 5.00001L68.1874 7.00001ZM92.3983 7.00001L104.504 7.00001L104.504 5.00001L92.3983 5.00001L92.3983 7.00001ZM116.609 7.00001L128.715 7.00001L128.715 5.00001L116.609 5.00001L116.609 7.00001ZM140.82 7.00001L152.926 7.00001L152.926 5.00001L140.82 5.00001L140.82 7.00001ZM165.031 7.00001L171.084 7.00001L171.084 5.00001L165.031 5.00001L165.031 7.00001Z" fill="#794187"/>
</svg>
